REM DIRINDEX 1\2,1\3
REM DIRNAME cjc039,folder01,folder02
TITLE ""
FILE "0961-1000.mp3" MP3
  TRACK 01 AUDIO
    TITLE "0:"
    INDEX 01 00:00:00
  TRACK 02 AUDIO
    TITLE "2:cjc039_0961"
    INDEX 01 00:00:27
  TRACK 03 AUDIO
    TITLE "0:"
    INDEX 01 00:01:42
  TRACK 04 AUDIO
    TITLE "2:cjc039_0962"
    INDEX 01 00:02:16
  TRACK 05 AUDIO
    TITLE "0:"
    INDEX 01 00:03:33
  TRACK 06 AUDIO
    TITLE "2:cjc039_0963"
    INDEX 01 00:04:07
  TRACK 07 AUDIO
    TITLE "0:"
    INDEX 01 00:05:36
  TRACK 08 AUDIO
    TITLE "2:cjc039_0964"
    INDEX 01 00:06:14
  TRACK 09 AUDIO
    TITLE "0:"
    INDEX 01 00:07:27
  TRACK 10 AUDIO
    TITLE "2:cjc039_0965"
    INDEX 01 00:08:05
  TRACK 11 AUDIO
    TITLE "0:"
    INDEX 01 00:09:30
  TRACK 12 AUDIO
    TITLE "2:cjc039_0966"
    INDEX 01 00:09:73
  TRACK 13 AUDIO
    TITLE "0:"
    INDEX 01 00:11:11
  TRACK 14 AUDIO
    TITLE "2:cjc039_0967"
    INDEX 01 00:11:60
  TRACK 15 AUDIO
    TITLE "0:"
    INDEX 01 00:13:08
  TRACK 16 AUDIO
    TITLE "2:cjc039_0968"
    INDEX 01 00:13:53
  TRACK 17 AUDIO
    TITLE "0:"
    INDEX 01 00:15:05
  TRACK 18 AUDIO
    TITLE "2:cjc039_0969"
    INDEX 01 00:15:48
  TRACK 19 AUDIO
    TITLE "0:"
    INDEX 01 00:17:33
  TRACK 20 AUDIO
    TITLE "2:cjc039_0970"
    INDEX 01 00:18:03
  TRACK 21 AUDIO
    TITLE "0:"
    INDEX 01 00:19:65
  TRACK 22 AUDIO
    TITLE "2:cjc039_0971"
    INDEX 01 00:20:41
  TRACK 23 AUDIO
    TITLE "0:"
    INDEX 01 00:21:68
  TRACK 24 AUDIO
    TITLE "2:cjc039_0972"
    INDEX 01 00:22:42
  TRACK 25 AUDIO
    TITLE "0:"
    INDEX 01 00:23:69
  TRACK 26 AUDIO
    TITLE "2:cjc039_0973"
    INDEX 01 00:24:39
  TRACK 27 AUDIO
    TITLE "0:"
    INDEX 01 00:25:68
  TRACK 28 AUDIO
    TITLE "2:cjc039_0974"
    INDEX 01 00:26:46
  TRACK 29 AUDIO
    TITLE "0:"
    INDEX 01 00:27:71
  TRACK 30 AUDIO
    TITLE "2:cjc039_0975"
    INDEX 01 00:28:51
  TRACK 31 AUDIO
    TITLE "0:"
    INDEX 01 00:30:05
  TRACK 32 AUDIO
    TITLE "2:cjc039_0976"
    INDEX 01 00:30:57
  TRACK 33 AUDIO
    TITLE "0:"
    INDEX 01 00:32:27
  TRACK 34 AUDIO
    TITLE "2:cjc039_0977"
    INDEX 01 00:33:01
  TRACK 35 AUDIO
    TITLE "0:"
    INDEX 01 00:34:26
  TRACK 36 AUDIO
    TITLE "2:cjc039_0978"
    INDEX 01 00:34:71
  TRACK 37 AUDIO
    TITLE "0:"
    INDEX 01 00:36:21
  TRACK 38 AUDIO
    TITLE "2:cjc039_0979"
    INDEX 01 00:36:74
  TRACK 39 AUDIO
    TITLE "0:"
    INDEX 01 00:38:12
  TRACK 40 AUDIO
    TITLE "2:cjc039_0980"
    INDEX 01 00:38:71
  TRACK 41 AUDIO
    TITLE "0:"
    INDEX 01 00:40:03
  TRACK 42 AUDIO
    TITLE "2:cjc039_0981"
    INDEX 01 00:40:54
  TRACK 43 AUDIO
    TITLE "0:"
    INDEX 01 00:42:39
  TRACK 44 AUDIO
    TITLE "2:cjc039_0982"
    INDEX 01 00:43:15
  TRACK 45 AUDIO
    TITLE "0:"
    INDEX 01 00:44:26
  TRACK 46 AUDIO
    TITLE "2:cjc039_0983"
    INDEX 01 00:45:10
  TRACK 47 AUDIO
    TITLE "0:"
    INDEX 01 00:46:45
  TRACK 48 AUDIO
    TITLE "2:cjc039_0984"
    INDEX 01 00:47:17
  TRACK 49 AUDIO
    TITLE "0:"
    INDEX 01 00:48:63
  TRACK 50 AUDIO
    TITLE "2:cjc039_0985"
    INDEX 01 00:49:39
  TRACK 51 AUDIO
    TITLE "0:"
    INDEX 01 00:51:16
  TRACK 52 AUDIO
    TITLE "2:cjc039_0986"
    INDEX 01 00:51:67
  TRACK 53 AUDIO
    TITLE "0:"
    INDEX 01 00:53:27
  TRACK 54 AUDIO
    TITLE "2:cjc039_0987"
    INDEX 01 00:53:74
  TRACK 55 AUDIO
    TITLE "0:"
    INDEX 01 00:55:14
  TRACK 56 AUDIO
    TITLE "2:cjc039_0988"
    INDEX 01 00:55:55
  TRACK 57 AUDIO
    TITLE "0:"
    INDEX 01 00:57:23
  TRACK 58 AUDIO
    TITLE "2:cjc039_0989"
    INDEX 01 00:57:68
  TRACK 59 AUDIO
    TITLE "0:"
    INDEX 01 00:59:18
  TRACK 60 AUDIO
    TITLE "2:cjc039_0990"
    INDEX 01 00:59:73
  TRACK 61 AUDIO
    TITLE "0:"
    INDEX 01 01:01:50
  TRACK 62 AUDIO
    TITLE "2:cjc039_0991"
    INDEX 01 01:02:28
  TRACK 63 AUDIO
    TITLE "0:"
    INDEX 01 01:03:65
  TRACK 64 AUDIO
    TITLE "2:cjc039_0992"
    INDEX 01 01:04:45
  TRACK 65 AUDIO
    TITLE "0:"
    INDEX 01 01:06:18
  TRACK 66 AUDIO
    TITLE "2:cjc039_0993"
    INDEX 01 01:07:00
  TRACK 67 AUDIO
    TITLE "0:"
    INDEX 01 01:08:54
  TRACK 68 AUDIO
    TITLE "2:cjc039_0994"
    INDEX 01 01:09:30
  TRACK 69 AUDIO
    TITLE "0:"
    INDEX 01 01:10:41
  TRACK 70 AUDIO
    TITLE "2:cjc039_0995"
    INDEX 01 01:11:15
  TRACK 71 AUDIO
    TITLE "0:"
    INDEX 01 01:12:42
  TRACK 72 AUDIO
    TITLE "2:cjc039_0996"
    INDEX 01 01:13:16
  TRACK 73 AUDIO
    TITLE "0:"
    INDEX 01 01:14:57
  TRACK 74 AUDIO
    TITLE "2:cjc039_0997"
    INDEX 01 01:15:33
  TRACK 75 AUDIO
    TITLE "0:"
    INDEX 01 01:17:12
  TRACK 76 AUDIO
    TITLE "2:cjc039_0998"
    INDEX 01 01:17:67
  TRACK 77 AUDIO
    TITLE "0:"
    INDEX 01 01:19:38
  TRACK 78 AUDIO
    TITLE "2:cjc039_0999"
    INDEX 01 01:20:12
  TRACK 79 AUDIO
    TITLE "0:"
    INDEX 01 01:21:57
  TRACK 80 AUDIO
    TITLE "2:cjc039_1000"
    INDEX 01 01:22:33
  TRACK 81 AUDIO
    TITLE "0:"
    INDEX 01 01:24:30
